<svg class="main-svg" xmlns="http://www.w3.org/2000/svg" xmlns:xlink="http://www.w3.org/1999/xlink" width="700" height="500" style="" viewBox="0 0 700 500"><rect x="0" y="0" width="700" height="500" style="fill: rgb(255, 255, 255); fill-opacity: 1;"/><defs id="defs-8ce970"><g class="clips"><clipPath id="clip8ce970xyplot" class="plotclip"><rect width="529.2" height="174.6"/></clipPath><clipPath id="clip8ce970x2y2plot" class="plotclip"><rect width="529.2" height="174.6"/></clipPath><clipPath class="axesclip" id="clip8ce970x"><rect x="80" y="0" width="529.2" height="500"/></clipPath><clipPath class="axesclip" id="clip8ce970y"><rect x="0" y="245.4" width="700" height="174.6"/></clipPath><clipPath class="axesclip" id="clip8ce970xy"><rect x="80" y="245.4" width="529.2" height="174.6"/></clipPath><clipPath class="axesclip" id="clip8ce970y2"><rect x="0" y="60" width="700" height="174.6"/></clipPath><clipPath class="axesclip" id="clip8ce970xy2"><rect x="80" y="60" width="529.2" height="174.6"/></clipPath><clipPath class="axesclip" id="clip8ce970x2"><rect x="80" y="0" width="529.2" height="500"/></clipPath><clipPath class="axesclip" id="clip8ce970x2y"><rect x="80" y="245.4" width="529.2" height="174.6"/></clipPath><clipPath class="axesclip" id="clip8ce970x2y2"><rect x="80" y="60" width="529.2" height="174.6"/></clipPath></g><g class="gradients"/><g class="patterns"/></defs><g class="bglayer"><rect class="bg" x="80" y="245.4" width="529.2" height="174.6" style="fill: rgb(238, 238, 236); fill-opacity: 1; stroke-width: 0;"/><rect class="bg" x="80" y="60" width="529.2" height="174.6" style="fill: rgb(238, 238, 236); fill-opacity: 1; stroke-width: 0;"/></g><g class="layer-below"><g class="imagelayer"/><g class="shapelayer"/></g><g class="cartesianlayer"><g class="subplot xy"><g class="layer-subplot"><g class="shapelayer"/><g class="imagelayer"/></g><g class="minor-gridlayer"><g class="x"/><g class="y"/></g><g class="gridlayer"><g class="x"><path class="xgrid crisp" transform="translate(212.3,0)" d="M0,245.4v174.6" style="stroke: rgb(211, 215, 207); stroke-opacity: 1; stroke-width: 1px;"/><path class="xgrid crisp" transform="translate(344.6,0)" d="M0,245.4v174.6" style="stroke: rgb(211, 215, 207); stroke-opacity: 1; stroke-width: 1px;"/><path class="xgrid crisp" transform="translate(476.9,0)" d="M0,245.4v174.6" style="stroke: rgb(211, 215, 207); stroke-opacity: 1; stroke-width: 1px;"/></g><g class="y"><path class="ygrid crisp" transform="translate(0,364.52)" d="M80,0h529.2" style="stroke: rgb(211, 215, 207); stroke-opacity: 1; stroke-width: 1px;"/><path class="ygrid crisp" transform="translate(0,309.03000000000003)" d="M80,0h529.2" style="stroke: rgb(211, 215, 207); stroke-opacity: 1; stroke-width: 1px;"/><path class="ygrid crisp" transform="translate(0,253.55)" d="M80,0h529.2" style="stroke: rgb(211, 215, 207); stroke-opacity: 1; stroke-width: 1px;"/></g></g><g class="zerolinelayer"><path class="xzl zl crisp" transform="translate(80,0)" d="M0,245.4v174.6" style="stroke: rgb(255, 255, 255); stroke-opacity: 1; stroke-width: 2px;"/></g><g class="layer-between"><g class="shapelayer"/><g class="imagelayer"/></g><path class="xlines-below"/><path class="ylines-below"/><g class="overlines-below"/><g class="xaxislayer-below"/><g class="yaxislayer-below"/><g class="overaxes-below"/><g class="overplot"><g class="xy" transform="translate(80,245.4)" clip-path="url(#clip8ce970xyplot)"><g class="scatterlayer mlayer"><g class="trace scatter trace4d4e12" style="stroke-miterlimit: 2; opacity: 1;"><g class="fills"/><g class="errorbars"/><g class="lines"><path class="js-line" d="M0,174.6Q2.74,130.09 6.62,119.12C8.45,113.95 10.87,111.67 13.23,108.62C15.31,105.93 17.57,103.71 19.85,101.58C21.99,99.57 24.22,97.82 26.46,96.14C28.63,94.51 30.85,93.04 33.08,91.63C35.26,90.25 37.47,88.99 39.69,87.77C41.88,86.57 44.09,85.44 46.31,84.35C48.5,83.28 50.71,82.27 52.92,81.29C55.12,80.32 57.33,79.39 59.54,78.5C61.74,77.61 63.94,76.76 66.15,75.94C68.35,75.12 70.56,74.33 72.77,73.56C74.97,72.8 77.17,72.06 79.38,71.34C81.58,70.62 83.79,69.93 86,69.25C88.2,68.57 90.4,67.92 92.61,67.28C94.81,66.64 97.02,66.02 99.23,65.41C101.43,64.8 103.63,64.21 105.84,63.63C108.04,63.05 110.25,62.49 112.46,61.94C114.66,61.39 116.86,60.85 119.07,60.32C121.27,59.79 123.48,59.27 125.69,58.76C127.89,58.25 130.09,57.76 132.3,57.27C134.5,56.78 136.71,56.3 138.92,55.83C141.12,55.36 143.32,54.9 145.53,54.44C147.73,53.99 149.94,53.54 152.15,53.1C154.35,52.66 156.56,52.23 158.76,51.8C160.97,51.37 163.17,50.96 165.38,50.54C167.58,50.13 169.79,49.71 171.99,49.31C174.2,48.91 176.4,48.52 178.61,48.13C180.81,47.74 183.02,47.35 185.22,46.97C187.43,46.59 189.63,46.22 191.84,45.85C194.04,45.48 196.25,45.11 198.45,44.75C200.66,44.39 202.86,44.03 205.07,43.68C207.27,43.33 209.48,42.98 211.68,42.64C213.89,42.3 216.09,41.96 218.3,41.62C220.5,41.28 222.71,40.95 224.91,40.62C227.12,40.29 229.32,39.97 231.53,39.65C233.73,39.33 235.94,39.01 238.14,38.7C240.35,38.38 242.55,38.07 244.76,37.76C246.96,37.45 249.17,37.15 251.37,36.85C253.58,36.55 255.78,36.25 257.99,35.95C260.19,35.65 262.4,35.36 264.6,35.07C266.81,34.78 269.01,34.49 271.22,34.2C273.42,33.92 275.63,33.64 277.83,33.36C280.04,33.08 282.24,32.8 284.45,32.52C286.65,32.24 288.86,31.97 291.06,31.7C293.27,31.43 295.47,31.17 297.68,30.9C299.88,30.64 302.09,30.37 304.29,30.11C306.5,29.85 308.7,29.59 310.91,29.33C313.11,29.07 315.32,28.81 317.52,28.56C319.73,28.31 321.93,28.06 324.14,27.81C326.34,27.56 328.55,27.31 330.75,27.06C332.96,26.81 335.16,26.57 337.37,26.33C339.57,26.09 341.78,25.85 343.98,25.61C346.19,25.37 348.39,25.14 350.6,24.9C352.8,24.67 355.01,24.43 357.21,24.2C359.42,23.97 361.62,23.74 363.83,23.51C366.03,23.28 368.24,23.05 370.44,22.82C372.65,22.59 374.85,22.37 377.06,22.15C379.26,21.93 381.47,21.71 383.67,21.49C385.88,21.27 388.08,21.05 390.29,20.83C392.49,20.61 394.7,20.39 396.9,20.18C399.11,19.96 401.31,19.75 403.52,19.54C405.72,19.33 407.93,19.12 410.13,18.91C412.34,18.7 414.54,18.5 416.75,18.29C418.95,18.08 421.16,17.87 423.36,17.67C425.57,17.46 427.77,17.26 429.98,17.06C432.18,16.86 434.39,16.66 436.59,16.46C438.8,16.26 441,16.06 443.21,15.86C445.41,15.66 447.62,15.47 449.82,15.28C452.03,15.08 454.23,14.88 456.44,14.69C458.64,14.5 460.85,14.31 463.05,14.12C465.26,13.93 467.46,13.74 469.67,13.55C471.87,13.36 474.08,13.17 476.28,12.98C478.49,12.79 480.69,12.61 482.9,12.42C485.1,12.24 487.31,12.05 489.51,11.87C491.72,11.69 493.92,11.5 496.13,11.32C498.33,11.14 500.54,10.96 502.74,10.78C504.95,10.6 507.15,10.43 509.36,10.25C511.56,10.07 513.77,9.9 515.97,9.72Q518.18,9.54 522.59,9.19" style="vector-effect: none; fill: none; stroke: rgb(52, 101, 164); stroke-opacity: 1; stroke-width: 2px; opacity: 1;"/></g><g class="points"/><g class="text"/></g><g class="trace scatter tracef79b34" style="stroke-miterlimit: 2; opacity: 1;"><g class="fills"/><g class="errorbars"/><g class="lines"><path class="js-line" d="M337.37,26.33" style="vector-effect: none; fill: none; stroke: rgb(136, 138, 133); stroke-opacity: 1; stroke-width: 2px; opacity: 1;"/></g><g class="points"><path class="point" transform="translate(337.37,26.33)" d="M5,0A5,5 0 1,1 0,-5A5,5 0 0,1 5,0Z" style="opacity: 1; stroke-width: 0px; fill: rgb(136, 138, 133); fill-opacity: 1;"/></g><g class="text"/></g></g></g></g><path class="xlines-above crisp" d="M0,0" style="fill: none;"/><path class="ylines-above crisp" d="M0,0" style="fill: none;"/><g class="overlines-above"/><g class="xaxislayer-above"><g class="xtick"><text text-anchor="middle" x="0" y="429" transform="translate(80,0)" style="font-family: 'Open Sans', verdana, arial, sans-serif; font-size: 8px; fill: rgb(42, 63, 95); fill-opacity: 1; white-space: pre; opacity: 1;">0</text></g><g class="xtick"><text text-anchor="middle" x="0" y="429" style="font-family: 'Open Sans', verdana, arial, sans-serif; font-size: 8px; fill: rgb(42, 63, 95); fill-opacity: 1; white-space: pre; opacity: 1;" transform="translate(212.3,0)">20</text></g><g class="xtick"><text text-anchor="middle" x="0" y="429" style="font-family: 'Open Sans', verdana, arial, sans-serif; font-size: 8px; fill: rgb(42, 63, 95); fill-opacity: 1; white-space: pre; opacity: 1;" transform="translate(344.6,0)">40</text></g><g class="xtick"><text text-anchor="middle" x="0" y="429" style="font-family: 'Open Sans', verdana, arial, sans-serif; font-size: 8px; fill: rgb(42, 63, 95); fill-opacity: 1; white-space: pre; opacity: 1;" transform="translate(476.9,0)">60</text></g><g class="xtick"><text text-anchor="middle" x="0" y="429" style="font-family: 'Open Sans', verdana, arial, sans-serif; font-size: 8px; fill: rgb(42, 63, 95); fill-opacity: 1; white-space: pre; opacity: 1;" transform="translate(609.2,0)">80</text></g></g><g class="yaxislayer-above"><g class="ytick"><text text-anchor="end" x="79" y="2.8" transform="translate(0,420)" style="font-family: 'Open Sans', verdana, arial, sans-serif; font-size: 8px; fill: rgb(42, 63, 95); fill-opacity: 1; white-space: pre; opacity: 1;">0</text></g><g class="ytick"><text text-anchor="end" x="79" y="2.8" style="font-family: 'Open Sans', verdana, arial, sans-serif; font-size: 8px; fill: rgb(42, 63, 95); fill-opacity: 1; white-space: pre; opacity: 1;" transform="translate(0,364.52)">1</text></g><g class="ytick"><text text-anchor="end" x="79" y="2.8" style="font-family: 'Open Sans', verdana, arial, sans-serif; font-size: 8px; fill: rgb(42, 63, 95); fill-opacity: 1; white-space: pre; opacity: 1;" transform="translate(0,309.03000000000003)">2</text></g><g class="ytick"><text text-anchor="end" x="79" y="2.8" style="font-family: 'Open Sans', verdana, arial, sans-serif; font-size: 8px; fill: rgb(42, 63, 95); fill-opacity: 1; white-space: pre; opacity: 1;" transform="translate(0,253.55)">3</text></g></g><g class="overaxes-above"/></g><g class="subplot x2y2"><g class="layer-subplot"><g class="shapelayer"/><g class="imagelayer"/></g><g class="minor-gridlayer"><g class="x2"/><g class="y2"/></g><g class="gridlayer"><g class="x2"><path class="x2grid crisp" transform="translate(212.3,0)" d="M0,60v174.6" style="stroke: rgb(211, 215, 207); stroke-opacity: 1; stroke-width: 1px;"/><path class="x2grid crisp" transform="translate(344.6,0)" d="M0,60v174.6" style="stroke: rgb(211, 215, 207); stroke-opacity: 1; stroke-width: 1px;"/><path class="x2grid crisp" transform="translate(476.9,0)" d="M0,60v174.6" style="stroke: rgb(211, 215, 207); stroke-opacity: 1; stroke-width: 1px;"/></g><g class="y2"><path class="y2grid crisp" transform="translate(0,201.44)" d="M80,0h529.2" style="stroke: rgb(211, 215, 207); stroke-opacity: 1; stroke-width: 1px;"/><path class="y2grid crisp" transform="translate(0,168.26999999999998)" d="M80,0h529.2" style="stroke: rgb(211, 215, 207); stroke-opacity: 1; stroke-width: 1px;"/><path class="y2grid crisp" transform="translate(0,135.11)" d="M80,0h529.2" style="stroke: rgb(211, 215, 207); stroke-opacity: 1; stroke-width: 1px;"/><path class="y2grid crisp" transform="translate(0,101.94)" d="M80,0h529.2" style="stroke: rgb(211, 215, 207); stroke-opacity: 1; stroke-width: 1px;"/><path class="y2grid crisp" transform="translate(0,68.78)" d="M80,0h529.2" style="stroke: rgb(211, 215, 207); stroke-opacity: 1; stroke-width: 1px;"/></g></g><g class="zerolinelayer"><path class="x2zl zl crisp" transform="translate(80,0)" d="M0,60v174.6" style="stroke: rgb(255, 255, 255); stroke-opacity: 1; stroke-width: 2px;"/></g><g class="layer-between"><g class="shapelayer"/><g class="imagelayer"/></g><path class="xlines-below"/><path class="ylines-below"/><g class="overlines-below"/><g class="xaxislayer-below"/><g class="yaxislayer-below"/><g class="overaxes-below"/><g class="overplot"><g class="x2y2" transform="translate(80,60)" clip-path="url(#clip8ce970x2y2plot)"><g class="scatterlayer mlayer"><g class="trace scatter trace87594a" style="stroke-miterlimit: 2; opacity: 1;"><g class="fills"/><g class="errorbars"/><g class="lines"><path class="js-line" d="M132.3,8.78Q134.72,70.56 138.92,85.16C140.75,91.5 143.11,94.35 145.53,98.03C147.58,101.15 149.85,103.69 152.15,106.08C154.27,108.28 156.5,110.17 158.76,111.94C160.92,113.63 163.14,115.12 165.38,116.52C167.55,117.88 169.76,119.1 171.99,120.26C174.18,121.39 176.39,122.42 178.61,123.4C180.8,124.37 183.01,125.26 185.22,126.1C187.42,126.94 189.63,127.71 191.84,128.45C194.04,129.19 196.24,129.87 198.45,130.53C200.65,131.18 202.86,131.79 205.07,132.38C207.27,132.97 209.47,133.52 211.68,134.05C213.88,134.58 216.09,135.07 218.3,135.55C220.5,136.03 222.7,136.49 224.91,136.93C227.11,137.37 229.32,137.79 231.53,138.19C233.73,138.59 235.93,138.98 238.14,139.35C240.34,139.72 242.55,140.08 244.76,140.43C246.96,140.78 249.16,141.11 251.37,141.43C253.57,141.75 255.78,142.06 257.99,142.36C260.19,142.66 262.4,142.95 264.6,143.23C266.81,143.51 269.01,143.78 271.22,144.04C273.42,144.3 275.63,144.55 277.83,144.8C280.04,145.05 282.24,145.29 284.45,145.52C286.65,145.75 288.86,145.98 291.06,146.2C293.27,146.42 295.47,146.64 297.68,146.85C299.88,147.06 302.09,147.25 304.29,147.45C306.5,147.65 308.7,147.84 310.91,148.03C313.11,148.22 315.32,148.4 317.52,148.58C319.73,148.76 321.93,148.93 324.14,149.1C326.34,149.27 328.55,149.44 330.75,149.6C332.96,149.76 335.16,149.92 337.37,150.08C339.57,150.23 341.78,150.38 343.98,150.53C346.19,150.68 348.39,150.83 350.6,150.97C352.8,151.11 355.01,151.25 357.21,151.38C359.42,151.52 361.62,151.65 363.83,151.78C366.03,151.91 368.24,152.04 370.44,152.17C372.65,152.3 374.85,152.42 377.06,152.54C379.26,152.66 381.47,152.78 383.67,152.89C385.88,153.01 388.08,153.12 390.29,153.23C392.49,153.34 394.7,153.45 396.9,153.56C399.11,153.67 401.31,153.77 403.52,153.88C405.72,153.98 407.93,154.09 410.13,154.19C412.34,154.29 414.54,154.38 416.75,154.48C418.95,154.58 421.16,154.68 423.36,154.77C425.57,154.86 427.77,154.95 429.98,155.04C432.18,155.13 434.39,155.22 436.59,155.31C438.8,155.4 441,155.48 443.21,155.57C445.41,155.65 447.62,155.74 449.82,155.82C452.03,155.9 454.23,155.99 456.44,156.07C458.64,156.15 460.85,156.22 463.05,156.3C465.26,156.38 467.46,156.45 469.67,156.53C471.87,156.6 474.08,156.68 476.28,156.75C478.49,156.82 480.69,156.9 482.9,156.97C485.1,157.04 487.31,157.11 489.51,157.18C491.72,157.25 493.92,157.31 496.13,157.38C498.33,157.45 500.54,157.51 502.74,157.58C504.95,157.65 507.15,157.72 509.36,157.78C511.56,157.84 513.77,157.9 515.97,157.96Q518.18,158.02 522.59,158.15" style="vector-effect: none; fill: none; stroke: rgb(193, 125, 17); stroke-opacity: 1; stroke-width: 2px; opacity: 1;"/></g><g class="points"/><g class="text"/></g><g class="trace scatter trace531715" style="stroke-miterlimit: 2; opacity: 1;"><g class="fills"/><g class="errorbars"/><g class="lines"><path class="js-line" d="M337.37,150.08" style="vector-effect: none; fill: none; stroke: rgb(136, 138, 133); stroke-opacity: 1; stroke-width: 2px; opacity: 1;"/></g><g class="points"><path class="point" transform="translate(337.37,150.08)" d="M5,0A5,5 0 1,1 0,-5A5,5 0 0,1 5,0Z" style="opacity: 1; stroke-width: 0px; fill: rgb(136, 138, 133); fill-opacity: 1;"/></g><g class="text"/></g></g></g></g><path class="xlines-above crisp" d="M0,0" style="fill: none;"/><path class="ylines-above crisp" d="M0,0" style="fill: none;"/><g class="overlines-above"/><g class="xaxislayer-above"/><g class="yaxislayer-above"><g class="y2tick"><text text-anchor="end" x="79" y="2.8" transform="translate(0,234.6)" style="font-family: 'Open Sans', verdana, arial, sans-serif; font-size: 8px; fill: rgb(42, 63, 95); fill-opacity: 1; white-space: pre; opacity: 1;">0</text></g><g class="y2tick"><text text-anchor="end" x="79" y="2.8" style="font-family: 'Open Sans', verdana, arial, sans-serif; font-size: 8px; fill: rgb(42, 63, 95); fill-opacity: 1; white-space: pre; opacity: 1;" transform="translate(0,201.44)">0.2</text></g><g class="y2tick"><text text-anchor="end" x="79" y="2.8" style="font-family: 'Open Sans', verdana, arial, sans-serif; font-size: 8px; fill: rgb(42, 63, 95); fill-opacity: 1; white-space: pre; opacity: 1;" transform="translate(0,168.26999999999998)">0.4</text></g><g class="y2tick"><text text-anchor="end" x="79" y="2.8" style="font-family: 'Open Sans', verdana, arial, sans-serif; font-size: 8px; fill: rgb(42, 63, 95); fill-opacity: 1; white-space: pre; opacity: 1;" transform="translate(0,135.11)">0.6</text></g><g class="y2tick"><text text-anchor="end" x="79" y="2.8" style="font-family: 'Open Sans', verdana, arial, sans-serif; font-size: 8px; fill: rgb(42, 63, 95); fill-opacity: 1; white-space: pre; opacity: 1;" transform="translate(0,101.94)">0.8</text></g><g class="y2tick"><text text-anchor="end" x="79" y="2.8" style="font-family: 'Open Sans', verdana, arial, sans-serif; font-size: 8px; fill: rgb(42, 63, 95); fill-opacity: 1; white-space: pre; opacity: 1;" transform="translate(0,68.78)">1</text></g></g><g class="overaxes-above"/></g></g><g class="polarlayer"/><g class="smithlayer"/><g class="ternarylayer"/><g class="geolayer"/><g class="funnelarealayer"/><g class="pielayer"/><g class="iciclelayer"/><g class="treemaplayer"/><g class="sunburstlayer"/><g class="glimages"/><defs id="topdefs-8ce970"><g class="clips"/></defs><g class="layer-above"><g class="imagelayer"/><g class="shapelayer"><g class="shape-group" data-index="0" clip-path="url(#clip8ce970xy)"><path data-index="0" fill-rule="evenodd" d="M80,302.67L212.3,302.67" style="opacity: 1; stroke: rgb(204, 0, 0); stroke-opacity: 1; fill: rgb(0, 0, 0); fill-opacity: 0; stroke-dasharray: 9px, 3px, 3px, 3px; stroke-width: 2px;"/><g data-index="0" class="shape-label"><text data-notex="1" class="shape-label-text" x="146.15" y="297.67" style="font-family: 'Open Sans', verdana, arial, sans-serif; font-size: 6px; fill: rgb(42, 63, 95); fill-opacity: 1; white-space: pre;" text-anchor="middle" transform="rotate(0,146.15,297.67)">Grace</text></g></g><g class="shape-group" data-index="1" clip-path="url(#clip8ce970xy)"><path data-index="1" fill-rule="evenodd" d="M212.3,420L212.3,302.67" style="opacity: 1; stroke: rgb(204, 0, 0); stroke-opacity: 1; fill: rgb(0, 0, 0); fill-opacity: 0; stroke-dasharray: 9px, 3px, 3px, 3px; stroke-width: 2px;"/><g data-index="1" class="shape-label"><text data-notex="1" class="shape-label-text" x="221.3" y="361.33500000000004" style="font-family: 'Open Sans', verdana, arial, sans-serif; font-size: 6px; fill: rgb(42, 63, 95); fill-opacity: 1; white-space: pre;" text-anchor="middle" transform="rotate(-90,221.3,361.33500000000004)">Initial Improvement</text></g></g><g class="shape-group" data-index="2" clip-path="url(#clip8ce970xy)"><path data-index="2" fill-rule="evenodd" d="M212.3,302.67L344.6,302.67" style="opacity: 1; stroke: rgb(115, 210, 22); stroke-opacity: 1; fill: rgb(0, 0, 0); fill-opacity: 0; stroke-dasharray: 9px, 3px, 3px, 3px; stroke-width: 2px;"/></g><g class="shape-group" data-index="3" clip-path="url(#clip8ce970xy)"><path data-index="3" fill-rule="evenodd" d="M344.6,302.67L344.6,280.47" style="opacity: 1; stroke: rgb(115, 210, 22); stroke-opacity: 1; fill: rgb(0, 0, 0); fill-opacity: 0; stroke-dasharray: 9px, 3px, 3px, 3px; stroke-width: 2px;"/><g data-index="3" class="shape-label"><text data-notex="1" class="shape-label-text" x="353.6" y="291.57000000000005" style="font-family: 'Open Sans', verdana, arial, sans-serif; font-size: 6px; fill: rgb(42, 63, 95); fill-opacity: 1; white-space: pre;" text-anchor="middle" transform="rotate(-90,353.6,291.57000000000005)">Improvement</text></g></g><g class="shape-group" data-index="4" clip-path="url(#clip8ce970xy2)"><path data-index="4" fill-rule="evenodd" d="M417.37,234.6L417.37,210.08" style="opacity: 1; stroke: rgb(136, 138, 133); stroke-opacity: 1; fill: rgb(0, 0, 0); fill-opacity: 0; stroke-dasharray: 9px, 3px, 3px, 3px; stroke-width: 2px;"/></g><g class="shape-group" data-index="5" clip-path="url(#clip8ce970x)"><path data-index="5" fill-rule="evenodd" d="M417.37,420L417.37,245.4" style="opacity: 1; stroke: rgb(136, 138, 133); stroke-opacity: 1; fill: rgb(0, 0, 0); fill-opacity: 0; stroke-dasharray: 9px, 3px, 3px, 3px; stroke-width: 2px;"/><g data-index="5" class="shape-label"><text data-notex="1" class="shape-label-text" x="412.37" y="332.7" style="font-family: 'Open Sans', verdana, arial, sans-serif; font-size: 6px; fill: rgb(42, 63, 95); fill-opacity: 1; white-space: pre;" text-anchor="middle" transform="rotate(-90,412.37,332.7)">Termination Point</text></g></g><g class="shape-group" data-index="6" clip-path="url(#clip8ce970y2)"><path data-index="6" fill-rule="evenodd" d="M80,209.73L609.2,209.73" style="opacity: 1; stroke: rgb(117, 80, 123); stroke-opacity: 1; fill: rgb(0, 0, 0); fill-opacity: 0; stroke-dasharray: 9px, 3px, 3px, 3px; stroke-width: 2px;"/><g data-index="6" class="shape-label"><text data-notex="1" class="shape-label-text" x="80" y="204.73" style="font-family: 'Open Sans', verdana, arial, sans-serif; font-size: 6px; fill: rgb(42, 63, 95); fill-opacity: 1; white-space: pre;" text-anchor="start" transform="rotate(0,80,204.73)">Minimum Improvement Ratio</text></g></g></g></g><g class="infolayer"><g class="g-gtitle"/><g class="g-xtitle"><text class="xtitle" x="344.6" y="451.1" text-anchor="middle" style="opacity: 1; font-family: 'Open Sans', verdana, arial, sans-serif; font-size: 8px; fill: rgb(42, 63, 95); fill-opacity: 1; white-space: pre;">Time Spent (seconds)</text></g><g class="g-x2title"/><g class="g-ytitle"/><g class="g-y2title"/><g class="annotation" data-index="0" style="opacity: 1;"><g class="annotation-text-g" transform="rotate(90,611.2,332.70000000000005)"><g class="cursor-pointer" transform="translate(609,331)"><rect class="bg" x="0.5" y="0.5" width="3" height="3" style="stroke-width: 1px; stroke: rgb(0, 0, 0); stroke-opacity: 0; fill: rgb(0, 0, 0); fill-opacity: 0;"/><text class="annotation-text" text-anchor="middle" x="2" y="2" style="font-family: 'Open Sans', verdana, arial, sans-serif; font-size: 12px; fill: rgb(42, 63, 95); fill-opacity: 1; white-space: pre;"></text></g></g></g><g class="annotation" data-index="1" style="opacity: 1;"><g class="annotation-text-g" transform="rotate(90,611.2,147.29999999999998)"><g class="cursor-pointer" transform="translate(609,145)"><rect class="bg" x="0.5" y="0.5" width="3" height="3" style="stroke-width: 1px; stroke: rgb(0, 0, 0); stroke-opacity: 0; fill: rgb(0, 0, 0); fill-opacity: 0;"/><text class="annotation-text" text-anchor="middle" x="2" y="2" style="font-family: 'Open Sans', verdana, arial, sans-serif; font-size: 12px; fill: rgb(42, 63, 95); fill-opacity: 1; white-space: pre;"></text></g></g></g><g class="annotation" data-index="2" style="opacity: 1;"><g class="annotation-text-g" transform="rotate(0,26,145)"><g class="cursor-pointer" transform="translate(-1,133)"><rect class="bg" x="0.5" y="0.5" width="54" height="24" style="stroke-width: 1px; stroke: rgb(0, 0, 0); stroke-opacity: 0; fill: rgb(0, 0, 0); fill-opacity: 0;"/><text class="annotation-text" text-anchor="middle" x="27.421875" y="11" style="font-family: 'Open Sans', verdana, arial, sans-serif; font-size: 8px; fill: rgb(42, 63, 95); fill-opacity: 1; white-space: pre;"><tspan class="line" dy="0em" x="27.421875" y="11">Improvement</tspan><tspan class="line" dy="1.3em" x="27.421875" y="11">Ratio</tspan></text></g></g></g><g class="annotation" data-index="3" style="opacity: 1;"><g class="annotation-text-g" transform="rotate(0,26,330)"><g class="cursor-pointer" transform="translate(14,323)"><rect class="bg" x="0.5" y="0.5" width="24" height="14" style="stroke-width: 1px; stroke: rgb(0, 0, 0); stroke-opacity: 0; fill: rgb(0, 0, 0); fill-opacity: 0;"/><text class="annotation-text" text-anchor="middle" x="12.40625" y="11" style="font-family: 'Open Sans', verdana, arial, sans-serif; font-size: 8px; fill: rgb(42, 63, 95); fill-opacity: 1; white-space: pre;">Score</text></g></g></g></g></svg>