<?xml version="1.0" standalone="no"?>
<!DOCTYPE svg PUBLIC "-//W3C//DTD SVG 20010904//EN"
 "http://www.w3.org/TR/2001/REC-SVG-20010904/DTD/svg10.dtd">
<svg version="1.0" xmlns="http://www.w3.org/2000/svg"
 width="1160.000000pt" height="1160.000000pt" viewBox="0 0 1160.000000 1160.000000"
 preserveAspectRatio="xMidYMid meet">
<metadata>
Created by potrace 1.14, written by Peter Selinger 2001-2017
</metadata>
<g transform="translate(0.000000,1160.000000) scale(0.100000,-0.100000)"
fill="#000000" stroke="none">
<path d="M2000 8800 l0 -1000 -637 -2 -637 -3 -362 -995 -362 -995 999 -3 999
-2 0 -2000 0 -2000 1174 0 c1269 0 1253 -1 1413 54 246 84 455 265 568 490 25
50 146 370 270 711 124 341 237 637 252 657 15 22 46 48 76 63 l51 25 1607 0
c1522 0 1607 1 1612 17 3 10 162 450 355 978 192 528 352 970 356 983 l8 23
-1389 -3 -1388 -3 -77 -22 c-187 -53 -315 -124 -444 -247 -97 -91 -184 -209
-228 -307 -13 -30 -124 -331 -247 -669 -141 -388 -234 -631 -254 -659 -16 -25
-48 -54 -70 -65 -39 -21 -54 -21 -762 -24 l-723 -2 0 1000 0 1000 818 0 c675
0 833 3 909 15 307 50 571 240 718 518 25 47 141 351 270 707 125 344 238 642
251 662 13 21 43 50 66 65 l42 28 1820 5 1820 5 362 995 362 995 -1546 3
c-1665 2 -1623 3 -1782 -49 -275 -90 -504 -302 -613 -569 -19 -47 -131 -350
-248 -674 -232 -637 -237 -648 -323 -687 -39 -18 -104 -19 -1483 -19 l-1443 0
0 1000 0 1000 -1080 0 -1080 0 0 -1000z"/>
</g>
</svg>
